<?xml version="1.0" encoding="UTF-8"?>
<svg xmlns="http://www.w3.org/2000/svg" xmlns:xlink="http://www.w3.org/1999/xlink" width="203px" height="200px" viewBox="0 0 203 200" version="1.1">
<g id="surface1">
<path style=" stroke:none;fill-rule:nonzero;fill:rgb(0%,40.784314%,85.490197%);fill-opacity:1;" d="M 35.089844 72.816406 C 38.726562 75.003906 40.316406 77.738281 42.480469 81.324219 C 46.101562 86.59375 50.890625 90.847656 55.507812 95.238281 C 55.066406 96.042969 54.628906 96.851562 54.175781 97.679688 C 50.738281 104.21875 47.917969 109.941406 47.578125 117.460938 C 49.078125 120.855469 49.078125 120.855469 50.75 123.808594 C 63.441406 125.039062 70.824219 122.050781 80.882812 114.285156 C 84.324219 110.925781 87.585938 107.515625 90.734375 103.875 C 91.667969 103.121094 92.605469 102.363281 93.570312 101.585938 C 97.101562 102.027344 97.101562 102.027344 99.914062 103.175781 C 93.328125 119.921875 84.492188 132.949219 68.164062 141.324219 C 57.21875 145.695312 42.511719 147.5 31.410156 143.050781 C 26.484375 139.441406 25.335938 136.339844 23.988281 130.457031 C 23.921875 128.785156 23.855469 127.117188 23.789062 125.398438 C 22.734375 125.488281 21.683594 125.582031 20.597656 125.675781 C 13.425781 126.042969 9.199219 126.183594 2.972656 122.320312 C -1.050781 115.742188 -1.414062 110.695312 0 103.175781 C 2.28125 98.414062 2.28125 98.414062 6.34375 95.238281 C 11.101562 94.148438 15.742188 93.765625 20.617188 93.652344 C 20.617188 92.601562 20.617188 91.554688 20.617188 90.476562 C 20.816406 85.117188 20.816406 85.117188 22.203125 79.363281 C 26.441406 75.59375 29.324219 73.15625 35.089844 72.816406 Z M 35.089844 72.816406 "/>
<path style=" stroke:none;fill-rule:nonzero;fill:rgb(100%,79.607844%,6.666667%);fill-opacity:1;" d="M 163.351562 6.347656 C 167.964844 8.355469 170.425781 9.929688 173.363281 13.988281 C 174.863281 18.765625 175.152344 21.988281 174.453125 26.984375 C 171.558594 31.625 168.316406 35.609375 163.351562 38.09375 C 165.3125 38.734375 165.3125 38.734375 167.316406 39.386719 C 171.28125 42.855469 171.28125 42.855469 171.808594 47.0625 C 171.78125 51.503906 171.621094 55.890625 171.28125 60.316406 C 168.40625 62.003906 168.40625 62.003906 164.9375 63.492188 C 163.367188 62.96875 161.796875 62.445312 160.179688 61.90625 C 156.386719 61.546875 152.585938 61.257812 148.78125 61.011719 C 146.761719 60.878906 144.746094 60.746094 142.667969 60.609375 C 141.117188 60.511719 139.570312 60.417969 137.976562 60.316406 C 137.214844 58.070312 136.453125 55.820312 135.695312 53.570312 C 135.273438 52.320312 134.851562 51.066406 134.414062 49.777344 C 133.347656 46.429688 132.4375 43.097656 131.632812 39.683594 C 126.46875 38.1875 126.46875 38.1875 120.53125 38.09375 C 113.3125 42.859375 110.890625 48.90625 108.730469 56.964844 C 106.933594 66.980469 106.621094 77.144531 106.257812 87.300781 C 101.5 85.714844 101.5 85.714844 99.648438 82.519531 C 94.042969 67.796875 92.226562 52.578125 97.734375 37.5 C 102.800781 26.644531 109.4375 16.335938 120.53125 11.109375 C 125.402344 10.382812 129.972656 10.089844 134.804688 11.109375 C 137.839844 13.605469 139.390625 15.527344 141.148438 19.046875 C 141.835938 17.542969 142.523438 16.035156 143.230469 14.484375 C 147.984375 5.671875 154.070312 5.167969 163.351562 6.347656 Z M 163.351562 6.347656 "/>
<path style=" stroke:none;fill-rule:nonzero;fill:rgb(52.549022%,85.490197%,18.039216%);fill-opacity:1;" d="M 183.96875 82.339844 C 187.871094 86.492188 189.996094 89.847656 191.898438 95.238281 C 191.398438 105.261719 191.398438 105.261719 187.140625 109.523438 C 189.875 110.609375 192.613281 111.695312 195.347656 112.777344 C 198.707031 114.527344 200.691406 116.03125 203 119.046875 C 204.09375 124.433594 203.921875 129.511719 203 134.921875 C 199.449219 139.898438 196.890625 142.089844 191.304688 144.445312 C 185.421875 144.445312 181.242188 142.289062 176.039062 139.683594 C 175.515625 139.160156 174.992188 138.636719 174.453125 138.09375 C 173.996094 139.339844 173.539062 140.582031 173.066406 141.863281 C 168.488281 147.527344 164.410156 147.738281 157.449219 148.945312 C 153.835938 149.207031 153.835938 149.207031 150.664062 147.617188 C 149.714844 142.9375 149.714844 142.9375 148.980469 137.003906 C 148.074219 129.933594 147.125 122.898438 145.90625 115.871094 C 147.398438 115.097656 147.398438 115.097656 148.917969 114.304688 C 150.214844 113.609375 151.507812 112.917969 152.84375 112.203125 C 154.132812 111.519531 155.421875 110.839844 156.746094 110.136719 C 160.605469 107.988281 160.605469 107.988281 163.351562 103.175781 C 164.410156 99.273438 164.410156 99.273438 163.351562 95.238281 C 156.265625 89.289062 150.550781 87.949219 141.546875 88.292969 C 139.882812 88.324219 139.882812 88.324219 138.1875 88.355469 C 129.445312 88.613281 121.058594 89.785156 112.601562 92.0625 C 113.132812 87.523438 113.792969 86.03125 117.421875 83.121094 C 139.414062 70.421875 161.808594 68.480469 183.96875 82.339844 Z M 171.28125 131.746094 C 172.867188 136.507812 172.867188 136.507812 172.867188 136.507812 Z M 171.28125 131.746094 "/>
<path style=" stroke:none;fill-rule:nonzero;fill:rgb(100%,27.058825%,28.235295%);fill-opacity:1;" d="M 61.851562 0 C 67.167969 3.800781 69.261719 6.136719 71.070312 12.402344 C 71.167969 13.546875 71.265625 14.691406 71.367188 15.871094 C 72.414062 14.300781 73.460938 12.730469 74.539062 11.109375 C 79.28125 9.457031 82.445312 8.832031 87.144531 10.851562 C 89.882812 12.417969 92.527344 14.136719 95.15625 15.871094 C 94.328125 22.496094 91.832031 27.5 88.792969 33.328125 C 86.769531 37.433594 85.367188 41.652344 84.054688 46.03125 C 82.886719 45.996094 81.71875 45.957031 80.515625 45.921875 C 78.195312 45.878906 78.195312 45.878906 75.828125 45.832031 C 74.300781 45.796875 72.773438 45.757812 71.199219 45.722656 C 66.324219 46.050781 62.992188 46.925781 58.679688 49.207031 C 56.671875 53.59375 56.671875 53.59375 57.09375 58.730469 C 61.378906 66.742188 66.460938 70.773438 74.339844 74.902344 C 75.292969 75.421875 76.242188 75.945312 77.222656 76.484375 C 83.125 79.707031 89.125 82.734375 95.15625 85.714844 C 95.15625 86.761719 95.15625 87.808594 95.15625 88.890625 C 75.976562 89.898438 61.804688 88.46875 46.882812 75.695312 C 37.535156 66.664062 32.40625 58.359375 31.222656 45.335938 C 31.8125 38.628906 33.144531 36.265625 38.0625 31.746094 C 42.421875 30.457031 42.421875 30.457031 45.992188 30.160156 C 44.683594 28.816406 43.375 27.472656 42.027344 26.089844 C 38.53125 21.898438 38.0625 20.628906 37.367188 14.882812 C 37.996094 10.027344 38.453125 7.132812 41.234375 3.175781 C 47.957031 -1.308594 53.960938 -1.234375 61.851562 0 Z M 61.851562 0 "/>
<path style=" stroke:none;fill-rule:nonzero;fill:rgb(13.725491%,76.078433%,100%);fill-opacity:1;" d="M 107.84375 98.414062 C 116.546875 99.738281 121.007812 103.109375 126.875 109.523438 C 137.371094 124.109375 141.085938 137.640625 139.5625 155.554688 C 137.730469 164.269531 134.0625 170.796875 126.875 176.191406 C 121.324219 177.976562 121.324219 177.976562 115.773438 177.777344 C 111.609375 174.207031 111.609375 174.207031 107.84375 169.839844 C 102.808594 165.757812 99.6875 164.742188 93.371094 165.378906 C 87.164062 166.28125 87.164062 166.28125 82.46875 169.839844 C 77.808594 170.535156 77.808594 170.535156 72.953125 169.839844 C 66.667969 164.230469 65.667969 159.015625 65.023438 150.792969 C 66.171875 150.410156 67.320312 150.023438 68.503906 149.628906 C 77.1875 146.617188 84.644531 143.652344 91.984375 138.09375 C 96.496094 139.933594 98.714844 141.6875 102.09375 145.335938 C 106.886719 149.789062 109.257812 150.933594 115.773438 150.792969 C 119.832031 148.714844 119.832031 148.714844 122.117188 144.445312 C 124.429688 127.960938 115.332031 112.570312 107.84375 98.414062 Z M 107.84375 98.414062 "/>
<path style=" stroke:none;fill-rule:nonzero;fill:rgb(13.725491%,76.078433%,100%);fill-opacity:1;" d="M 103.085938 168.253906 C 107.378906 171.148438 110.28125 173.132812 112.601562 177.777344 C 113.417969 184.855469 113.085938 188.097656 109.332031 194.246094 C 103.75 199.238281 101.007812 200.128906 93.570312 200 C 88.480469 198.171875 85.230469 196.738281 81.875 192.460938 C 79.960938 185.566406 79.953125 179.875 82.867188 173.3125 C 88.875 165.792969 93.910156 166 103.085938 168.253906 Z M 103.085938 168.253906 "/>
</g>
</svg>
