<svg width="64" height="64" viewBox="0 0 64 64" fill="none" xmlns="http://www.w3.org/2000/svg">
  <circle cx="32" cy="32" r="30" fill="none" stroke="#A33E3E" stroke-width="3.5"/>
  <circle cx="32" cy="32" r="27" fill="none" stroke="none"/>
  <circle cx="20" cy="20" r="2.5" fill="#A33E3E"/>
  <circle cx="44" cy="20" r="2.5" fill="#A33E3E"/>
  <circle cx="20" cy="44" r="2.5" fill="#A33E3E"/>
  <circle cx="44" cy="44" r="2.5" fill="#A33E3E"/>
  <circle cx="32" cy="32" r="3.5" fill="#A33E3E"/>
  <line x1="20" y1="20" x2="32" y2="32" stroke="#A33E3E" stroke-width="2.5" opacity="0.7"/>
  <line x1="44" y1="20" x2="32" y2="32" stroke="#A33E3E" stroke-width="2.5" opacity="0.7"/>
  <line x1="20" y1="44" x2="32" y2="32" stroke="#A33E3E" stroke-width="2.5" opacity="0.7"/>
  <line x1="44" y1="44" x2="32" y2="32" stroke="#A33E3E" stroke-width="2.5" opacity="0.7"/>
  <rect x="30.5" y="30.5" width="3" height="3" rx="0.8" fill="#A33E3E"/>
  <circle cx="31.5" cy="31.5" r="0.5" fill="white"/>
  <circle cx="33.5" cy="31.5" r="0.5" fill="white"/>
  <circle cx="31.5" cy="33.5" r="0.5" fill="white"/>
  <circle cx="33.5" cy="33.5" r="0.5" fill="white"/>
  <rect x="17.5" y="17.5" width="5" height="5" rx="0.8" fill="#A33E3E" opacity="0.6"/>
  <rect x="41.5" y="17.5" width="5" height="5" rx="0.8" fill="#A33E3E" opacity="0.6"/>
  <rect x="17.5" y="41.5" width="5" height="5" rx="0.8" fill="#A33E3E" opacity="0.6"/>
  <rect x="41.5" y="41.5" width="5" height="5" rx="0.8" fill="#A33E3E" opacity="0.6"/>
  <circle cx="22" cy="22" r="1" fill="white"/>
  <circle cx="42" cy="22" r="1" fill="white"/>
  <circle cx="22" cy="42" r="1" fill="white"/>
  <circle cx="42" cy="42" r="1" fill="white"/>
  <circle cx="26" cy="26" r="0.6" fill="rgb(250, 140, 22)" opacity="0.7"/>
  <circle cx="38" cy="26" r="0.6" fill="rgb(250, 140, 22)" opacity="0.7"/>
  <circle cx="26" cy="38" r="0.6" fill="rgb(250, 140, 22)" opacity="0.7"/>
  <circle cx="38" cy="38" r="0.6" fill="rgb(250, 140, 22)" opacity="0.7"/>
</svg>
