<?xml version="1.0" encoding="UTF-8"?>
<svg xmlns="http://www.w3.org/2000/svg" xmlns:xlink="http://www.w3.org/1999/xlink" width="200px" height="200px" viewBox="0 0 200 200" version="1.1">
<g id="surface1">
<path style=" stroke:none;fill-rule:nonzero;fill:rgb(5.882353%,72.549021%,50.588238%);fill-opacity:1;" d="M 117.8125 1.25 C 118.175781 1.320312 118.542969 1.386719 118.917969 1.457031 C 123.761719 2.398438 128.46875 3.675781 133.125 5.3125 C 133.390625 5.40625 133.65625 5.496094 133.933594 5.59375 C 145.902344 9.800781 157.148438 16.386719 166.496094 24.992188 C 167.105469 25.550781 167.726562 26.085938 168.359375 26.621094 C 171.203125 29.109375 173.871094 31.820312 176.210938 34.785156 C 176.910156 35.671875 177.644531 36.523438 178.378906 37.382812 C 188.964844 50.109375 195.738281 65.996094 198.75 82.1875 C 198.816406 82.535156 198.882812 82.886719 198.949219 83.246094 C 200.839844 93.726562 200.96875 105.457031 199.0625 115.9375 C 199 116.292969 198.9375 116.644531 198.875 117.011719 C 197.886719 122.515625 196.449219 127.820312 194.6875 133.125 C 193.710938 132.691406 193.050781 132.191406 192.296875 131.4375 C 192.074219 131.214844 191.851562 130.996094 191.625 130.765625 C 191.382812 130.523438 191.140625 130.28125 190.890625 130.027344 C 190.632812 129.769531 190.371094 129.511719 190.105469 129.246094 C 189.386719 128.527344 188.671875 127.808594 187.957031 127.089844 C 187.183594 126.316406 186.410156 125.542969 185.632812 124.769531 C 184.292969 123.425781 182.953125 122.085938 181.613281 120.742188 C 179.679688 118.800781 177.742188 116.863281 175.804688 114.925781 C 172.660156 111.777344 169.515625 108.632812 166.375 105.484375 C 163.320312 102.425781 160.269531 99.367188 157.214844 96.3125 C 156.929688 96.027344 156.929688 96.027344 156.644531 95.738281 C 155.699219 94.792969 154.753906 93.847656 153.808594 92.90625 C 145.976562 85.0625 138.144531 77.21875 130.3125 69.375 C 128.101562 71.183594 126.117188 73.214844 124.101562 75.234375 C 123.691406 75.648438 123.28125 76.058594 122.871094 76.46875 C 121.746094 77.589844 120.621094 78.71875 119.496094 79.84375 C 118.28125 81.058594 117.066406 82.269531 115.855469 83.484375 C 113.75 85.585938 111.648438 87.691406 109.546875 89.792969 C 106.507812 92.835938 103.46875 95.875 100.429688 98.914062 C 95.496094 103.847656 90.566406 108.78125 85.636719 113.714844 C 80.847656 118.507812 76.058594 123.300781 71.265625 128.089844 C 71.117188 128.238281 70.972656 128.386719 70.820312 128.539062 C 69.335938 130.023438 67.851562 131.507812 66.367188 132.992188 C 53.933594 145.429688 41.496094 157.871094 29.0625 170.3125 C 27.738281 169.710938 26.886719 168.796875 25.917969 167.734375 C 25.648438 167.441406 25.648438 167.441406 25.375 167.144531 C 23.730469 165.332031 22.203125 163.441406 20.730469 161.488281 C 20.453125 161.125 20.175781 160.757812 19.894531 160.394531 C 13.761719 152.414062 9.097656 143.492188 5.625 134.0625 C 5.53125 133.808594 5.4375 133.554688 5.339844 133.296875 C 3.441406 128.089844 2.132812 122.679688 1.171875 117.226562 C 1.125 116.960938 1.078125 116.695312 1.027344 116.417969 C 0.878906 115.53125 0.75 114.640625 0.625 113.75 C 0.570312 113.355469 0.515625 112.964844 0.457031 112.558594 C -0.0820312 108.464844 -0.125 104.378906 -0.117188 100.253906 C -0.117188 99.894531 -0.117188 99.539062 -0.117188 99.167969 C -0.105469 93.40625 0.167969 87.859375 1.25 82.1875 C 1.320312 81.824219 1.386719 81.457031 1.457031 81.082031 C 2.398438 76.238281 3.679688 71.53125 5.3125 66.875 C 5.449219 66.480469 5.449219 66.480469 5.585938 66.078125 C 9.773438 54.09375 16.382812 42.851562 24.992188 33.503906 C 25.550781 32.894531 26.085938 32.273438 26.621094 31.640625 C 29.109375 28.796875 31.820312 26.128906 34.785156 23.789062 C 35.671875 23.089844 36.523438 22.355469 37.382812 21.621094 C 50.113281 11.035156 65.996094 4.265625 82.1875 1.25 C 82.535156 1.183594 82.882812 1.117188 83.242188 1.050781 C 94.410156 -0.976562 106.667969 -0.875 117.8125 1.25 Z M 117.8125 1.25 "/>
<path style=" stroke:none;fill-rule:nonzero;fill:rgb(5.882353%,72.549021%,50.588238%);fill-opacity:1;" d="M 130.335938 118.792969 C 131.339844 119.242188 132.046875 120.039062 132.808594 120.8125 C 132.996094 120.996094 133.183594 121.179688 133.375 121.371094 C 134 121.992188 134.621094 122.613281 135.242188 123.238281 C 135.691406 123.683594 136.136719 124.125 136.585938 124.570312 C 137.800781 125.78125 139.011719 126.992188 140.222656 128.203125 C 141.234375 129.214844 142.246094 130.222656 143.257812 131.230469 C 145.644531 133.609375 148.027344 135.992188 150.410156 138.378906 C 152.867188 140.839844 155.335938 143.296875 157.800781 145.753906 C 159.917969 147.859375 162.03125 149.96875 164.140625 152.078125 C 165.402344 153.339844 166.664062 154.601562 167.929688 155.859375 C 169.117188 157.042969 170.304688 158.230469 171.488281 159.417969 C 171.921875 159.855469 172.359375 160.289062 172.796875 160.722656 C 173.394531 161.316406 173.984375 161.910156 174.574219 162.507812 C 174.753906 162.679688 174.929688 162.851562 175.109375 163.027344 C 175.585938 163.515625 175.585938 163.515625 176.25 164.375 C 176.214844 165.484375 175.664062 166.027344 174.910156 166.808594 C 174.703125 167.03125 174.492188 167.253906 174.273438 167.480469 C 173.9375 167.828125 173.9375 167.828125 173.59375 168.183594 C 173.367188 168.421875 173.136719 168.660156 172.902344 168.90625 C 172.25 169.585938 171.59375 170.261719 170.9375 170.9375 C 170.652344 171.234375 170.363281 171.53125 170.066406 171.835938 C 168.648438 173.277344 167.179688 174.636719 165.625 175.9375 C 165.457031 176.078125 165.289062 176.222656 165.113281 176.367188 C 155.816406 184.152344 145.441406 190.167969 134.0625 194.375 C 133.808594 194.46875 133.554688 194.5625 133.292969 194.660156 C 128.09375 196.558594 122.6875 197.863281 117.246094 198.828125 C 116.980469 198.875 116.71875 198.921875 116.445312 198.972656 C 111.015625 199.882812 105.636719 200.117188 100.136719 200.097656 C 99.792969 200.097656 99.445312 200.097656 99.089844 200.09375 C 94.023438 200.078125 89.0625 199.964844 84.0625 199.0625 C 83.53125 198.96875 83.53125 198.96875 82.988281 198.875 C 74.371094 197.328125 66.164062 194.691406 58.125 191.25 C 58.304688 190.089844 58.765625 189.554688 59.585938 188.734375 C 59.832031 188.480469 60.082031 188.230469 60.335938 187.972656 C 60.613281 187.699219 60.886719 187.425781 61.171875 187.144531 C 61.605469 186.703125 61.605469 186.703125 62.050781 186.257812 C 62.859375 185.445312 63.667969 184.636719 64.480469 183.828125 C 65.351562 182.953125 66.222656 182.078125 67.09375 181.203125 C 68.800781 179.492188 70.507812 177.78125 72.21875 176.070312 C 73.609375 174.679688 75 173.292969 76.386719 171.902344 C 76.785156 171.5 77.183594 171.101562 77.585938 170.699219 C 77.785156 170.503906 77.980469 170.304688 78.1875 170.097656 C 81.949219 166.332031 85.710938 162.566406 89.476562 158.804688 C 92.925781 155.355469 96.371094 151.90625 99.8125 148.453125 C 103.34375 144.914062 106.875 141.375 110.414062 137.839844 C 112.402344 135.851562 114.386719 133.863281 116.371094 131.875 C 118.058594 130.179688 119.746094 128.488281 121.441406 126.800781 C 122.304688 125.9375 123.167969 125.074219 124.03125 124.207031 C 124.960938 123.269531 125.898438 122.339844 126.835938 121.410156 C 127.109375 121.132812 127.382812 120.855469 127.664062 120.570312 C 127.914062 120.320312 128.164062 120.074219 128.421875 119.820312 C 128.636719 119.605469 128.851562 119.390625 129.074219 119.167969 C 129.6875 118.75 129.6875 118.75 130.335938 118.792969 Z M 130.335938 118.792969 "/>
</g>
</svg>
