<?xml version="1.0" encoding="UTF-8"?>
<svg xmlns="http://www.w3.org/2000/svg" xmlns:xlink="http://www.w3.org/1999/xlink" width="591px" height="200px" viewBox="0 0 591 200" version="1.1">
<g id="surface1">
<path style=" stroke:none;fill-rule:nonzero;fill:rgb(78.039217%,27.058825%,20%);fill-opacity:1;" d="M 45.191406 0.679688 C 46.382812 0.675781 47.574219 0.675781 48.765625 0.671875 C 51.25 0.671875 53.734375 0.675781 56.21875 0.683594 C 59.070312 0.691406 61.921875 0.691406 64.773438 0.679688 C 67.542969 0.671875 70.316406 0.671875 73.085938 0.675781 C 74.253906 0.679688 75.417969 0.675781 76.585938 0.671875 C 84.289062 0.648438 92.042969 0.691406 98.980469 4.503906 C 99.28125 4.664062 99.582031 4.820312 99.894531 4.984375 C 108.648438 9.710938 115.585938 17.222656 118.660156 26.789062 C 121.621094 37.5 121.046875 48.433594 115.601562 58.285156 C 113.679688 61.597656 111.210938 64.289062 108.503906 66.972656 C 108.183594 67.3125 107.863281 67.648438 107.53125 67.992188 C 100.890625 74.507812 91.496094 77.195312 82.441406 77.21875 C 81.914062 77.222656 81.386719 77.222656 80.839844 77.226562 C 79.09375 77.234375 77.34375 77.242188 75.59375 77.246094 C 74.695312 77.25 74.695312 77.25 73.777344 77.253906 C 70.929688 77.261719 68.082031 77.265625 65.230469 77.269531 C 61.964844 77.277344 58.695312 77.289062 55.425781 77.304688 C 52.886719 77.320312 50.347656 77.328125 47.808594 77.328125 C 46.296875 77.328125 44.789062 77.335938 43.277344 77.347656 C 35.339844 77.398438 28.117188 77.175781 20.863281 73.585938 C 20.539062 73.429688 20.214844 73.269531 19.878906 73.109375 C 16.90625 71.609375 14.433594 69.714844 12.003906 67.4375 C 11.644531 67.121094 11.289062 66.804688 10.917969 66.476562 C 4.9375 60.925781 0.460938 52.457031 -0.101562 44.253906 C -0.503906 32.101562 1.246094 22.089844 9.695312 12.933594 C 9.980469 12.609375 10.261719 12.28125 10.554688 11.949219 C 19.726562 1.964844 32.441406 0.632812 45.191406 0.679688 Z M 22.164062 23.09375 C 18.242188 27.792969 15.847656 33.683594 16.015625 39.871094 C 16.964844 47.921875 20.230469 53.820312 26.460938 59.035156 C 29.984375 61.65625 34.238281 63.324219 38.644531 63.347656 C 39.066406 63.351562 39.488281 63.355469 39.925781 63.359375 C 40.382812 63.359375 40.839844 63.359375 41.3125 63.359375 C 42.042969 63.367188 42.042969 63.367188 42.789062 63.371094 C 44.398438 63.378906 46.007812 63.386719 47.617188 63.390625 C 48.167969 63.390625 48.71875 63.394531 49.289062 63.394531 C 52.207031 63.40625 55.125 63.410156 58.046875 63.414062 C 61.050781 63.421875 64.058594 63.4375 67.0625 63.457031 C 69.382812 63.46875 71.703125 63.472656 74.019531 63.472656 C 75.128906 63.476562 76.234375 63.480469 77.34375 63.488281 C 85.292969 63.6875 85.292969 63.6875 92.804688 61.433594 C 93.183594 61.257812 93.558594 61.082031 93.949219 60.902344 C 100.515625 57.722656 104.3125 51.957031 106.65625 45.265625 C 108.296875 39 107.132812 32.242188 104.003906 26.675781 C 99.859375 20.296875 94.265625 16.40625 86.804688 14.78125 C 86.113281 14.738281 85.421875 14.714844 84.726562 14.710938 C 84.109375 14.707031 84.109375 14.707031 83.476562 14.703125 C 83.023438 14.703125 82.574219 14.699219 82.109375 14.699219 C 81.632812 14.695312 81.15625 14.691406 80.664062 14.691406 C 79.085938 14.679688 77.503906 14.675781 75.925781 14.671875 C 75.382812 14.667969 74.84375 14.667969 74.285156 14.664062 C 71.421875 14.65625 68.554688 14.648438 65.6875 14.644531 C 62.738281 14.640625 59.789062 14.625 56.839844 14.605469 C 54.5625 14.59375 52.285156 14.589844 50.011719 14.585938 C 48.921875 14.585938 47.835938 14.578125 46.75 14.570312 C 36.859375 14.496094 29.304688 15.664062 22.164062 23.09375 Z M 22.164062 23.09375 "/>
<path style=" stroke:none;fill-rule:nonzero;fill:rgb(78.039217%,27.058825%,20%);fill-opacity:1;" d="M 128.359375 0.921875 C 145.199219 0.867188 145.199219 0.867188 162.378906 0.808594 C 165.917969 0.792969 169.453125 0.773438 173.097656 0.757812 C 177.4375 0.75 177.4375 0.75 179.472656 0.746094 C 180.886719 0.746094 182.300781 0.738281 183.714844 0.730469 C 185.523438 0.714844 187.332031 0.710938 189.140625 0.714844 C 189.800781 0.714844 190.460938 0.710938 191.121094 0.703125 C 198.480469 0.625 205.527344 2.65625 211.015625 7.773438 C 216.429688 13.710938 219.164062 20.71875 218.824219 28.8125 C 218.023438 36.421875 214.566406 42.667969 208.695312 47.574219 C 203.25 51.324219 198.179688 52.617188 191.671875 52.914062 C 191.0625 52.945312 191.0625 52.945312 190.441406 52.976562 C 189.445312 53.023438 188.453125 53.070312 187.457031 53.117188 C 187.753906 53.359375 188.050781 53.601562 188.359375 53.847656 C 192.046875 56.855469 195.683594 59.925781 199.308594 63.007812 C 201.882812 65.199219 204.460938 67.378906 207.082031 69.515625 C 209.046875 71.117188 210.996094 72.734375 212.9375 74.363281 C 213.339844 74.699219 213.339844 74.699219 213.746094 75.039062 C 214.382812 75.574219 215.003906 76.121094 215.621094 76.675781 C 215.621094 76.828125 215.621094 76.980469 215.621094 77.136719 C 212.566406 77.265625 209.515625 77.355469 206.457031 77.414062 C 205.421875 77.441406 204.382812 77.476562 203.347656 77.519531 C 193.792969 77.917969 193.792969 77.917969 190.824219 75.398438 C 189.777344 74.347656 188.851562 73.207031 187.917969 72.054688 C 187.089844 71.34375 186.246094 70.648438 185.378906 69.976562 C 183.292969 68.296875 181.328125 66.527344 179.367188 64.703125 C 177.875 63.324219 176.34375 62.015625 174.761719 60.738281 C 172.675781 59.058594 170.707031 57.289062 168.75 55.464844 C 167.265625 54.09375 165.746094 52.792969 164.167969 51.53125 C 161.96875 49.757812 159.902344 47.875 157.84375 45.941406 C 155.789062 44.019531 153.640625 42.257812 151.421875 40.527344 C 150.976562 40.128906 150.976562 40.128906 150.519531 39.722656 C 150.519531 39.417969 150.519531 39.113281 150.519531 38.800781 C 151.0625 38.796875 151.601562 38.796875 152.15625 38.792969 C 157.257812 38.777344 162.359375 38.75 167.460938 38.714844 C 170.085938 38.695312 172.707031 38.679688 175.328125 38.675781 C 177.863281 38.667969 180.394531 38.652344 182.929688 38.628906 C 183.890625 38.621094 184.855469 38.617188 185.820312 38.617188 C 187.175781 38.617188 188.53125 38.605469 189.886719 38.589844 C 190.28125 38.589844 190.675781 38.59375 191.082031 38.597656 C 194.4375 38.539062 196.949219 37.429688 199.808594 35.738281 C 202.078125 33.34375 203.480469 30.226562 203.679688 26.921875 C 203.488281 23.648438 202.316406 20.320312 199.925781 18.015625 C 197.519531 16.382812 195.226562 15.191406 192.289062 15.167969 C 191.859375 15.164062 191.433594 15.160156 190.992188 15.15625 C 190.519531 15.152344 190.050781 15.152344 189.5625 15.148438 C 189.058594 15.144531 188.558594 15.136719 188.039062 15.132812 C 186.40625 15.117188 184.773438 15.109375 183.136719 15.097656 C 182.132812 15.085938 181.125 15.078125 180.117188 15.070312 C 176.378906 15.039062 172.640625 15.011719 168.902344 14.984375 C 160.550781 14.914062 152.199219 14.847656 143.59375 14.78125 C 143.59375 35.359375 143.59375 55.933594 143.59375 77.136719 C 138.566406 77.136719 133.539062 77.136719 128.359375 77.136719 C 128.359375 51.984375 128.359375 26.835938 128.359375 0.921875 Z M 128.359375 0.921875 "/>
<path style=" stroke:none;fill-rule:nonzero;fill:rgb(78.039217%,27.058825%,20.392157%);fill-opacity:1;" d="M 538.601562 0.820312 C 539.164062 0.820312 539.722656 0.820312 540.296875 0.820312 C 541.816406 0.820312 543.335938 0.824219 544.851562 0.832031 C 546.445312 0.835938 548.039062 0.835938 549.628906 0.835938 C 552.636719 0.839844 555.648438 0.847656 558.65625 0.855469 C 562.082031 0.867188 565.511719 0.871094 568.941406 0.878906 C 575.984375 0.886719 583.03125 0.902344 590.078125 0.921875 C 589.78125 1.515625 589.488281 2.109375 589.195312 2.703125 C 588.949219 3.199219 588.949219 3.199219 588.699219 3.703125 C 588.179688 4.714844 587.613281 5.667969 586.988281 6.617188 C 586.769531 6.949219 586.554688 7.28125 586.328125 7.621094 C 586.109375 7.957031 585.886719 8.289062 585.660156 8.632812 C 585.21875 9.308594 584.773438 9.980469 584.332031 10.65625 C 584.136719 10.953125 583.945312 11.246094 583.746094 11.546875 C 583.101562 12.480469 583.101562 12.480469 582.695312 13.667969 C 581.765625 14.78125 581.765625 14.78125 580.90625 14.992188 C 579.722656 15.070312 578.5625 15.074219 577.378906 15.054688 C 576.707031 15.058594 576.707031 15.058594 576.015625 15.0625 C 575.039062 15.0625 574.058594 15.0625 573.082031 15.054688 C 571.527344 15.042969 569.972656 15.042969 568.421875 15.050781 C 565.117188 15.058594 561.8125 15.050781 558.507812 15.039062 C 554.691406 15.03125 550.878906 15.027344 547.0625 15.039062 C 545.539062 15.042969 544.019531 15.03125 542.496094 15.023438 C 534.558594 15.011719 527.453125 16.105469 521.394531 21.765625 C 518.492188 24.851562 516.609375 28.335938 515.277344 32.332031 C 538.589844 32.332031 561.902344 32.332031 585.921875 32.332031 C 585.230469 34.0625 584.640625 35.292969 583.644531 36.808594 C 583.382812 37.207031 583.121094 37.605469 582.851562 38.015625 C 582.578125 38.425781 582.304688 38.835938 582.023438 39.261719 C 581.488281 40.078125 580.949219 40.898438 580.410156 41.714844 C 580.171875 42.074219 579.933594 42.433594 579.6875 42.804688 C 578.964844 43.875 578.964844 43.875 578.417969 45.085938 C 577.609375 46.1875 577.609375 46.1875 576.464844 46.472656 C 576.007812 46.472656 575.550781 46.46875 575.078125 46.46875 C 574.550781 46.46875 574.023438 46.472656 573.480469 46.476562 C 572.902344 46.46875 572.328125 46.460938 571.730469 46.453125 C 571.121094 46.453125 570.515625 46.453125 569.886719 46.453125 C 568.21875 46.453125 566.550781 46.441406 564.882812 46.421875 C 563.140625 46.410156 561.398438 46.40625 559.652344 46.40625 C 556.351562 46.398438 553.050781 46.378906 549.75 46.355469 C 545.992188 46.328125 542.230469 46.316406 538.472656 46.304688 C 530.742188 46.28125 523.011719 46.242188 515.277344 46.1875 C 515.773438 47.214844 516.269531 48.242188 516.769531 49.265625 C 516.90625 49.554688 517.042969 49.839844 517.1875 50.136719 C 520.003906 55.875 524.917969 59.773438 530.828125 62.019531 C 532.777344 62.628906 534.601562 62.875 536.640625 62.890625 C 537.125 62.894531 537.605469 62.898438 538.101562 62.90625 C 538.882812 62.910156 538.882812 62.910156 539.683594 62.914062 C 540.515625 62.917969 540.515625 62.917969 541.363281 62.925781 C 542.878906 62.9375 544.394531 62.949219 545.910156 62.957031 C 547.496094 62.96875 549.082031 62.980469 550.667969 62.992188 C 553.667969 63.015625 556.667969 63.035156 559.667969 63.054688 C 563.085938 63.078125 566.503906 63.105469 569.917969 63.128906 C 576.945312 63.183594 583.972656 63.230469 591 63.28125 C 590.679688 65.066406 590.242188 66.238281 589.230469 67.753906 C 588.835938 68.351562 588.835938 68.351562 588.433594 68.964844 C 588.15625 69.375 587.878906 69.785156 587.59375 70.207031 C 587.050781 71.027344 586.511719 71.84375 585.96875 72.660156 C 585.726562 73.023438 585.484375 73.382812 585.238281 73.753906 C 584.492188 74.804688 584.492188 74.804688 584.089844 76.03125 C 583.152344 77.136719 583.152344 77.136719 582.242188 77.351562 C 580.988281 77.4375 579.75 77.441406 578.492188 77.429688 C 578.011719 77.429688 577.53125 77.433594 577.039062 77.4375 C 575.449219 77.445312 573.855469 77.4375 572.265625 77.425781 C 571.15625 77.425781 570.046875 77.429688 568.941406 77.429688 C 566.609375 77.429688 564.28125 77.425781 561.949219 77.410156 C 558.980469 77.394531 556.011719 77.398438 553.042969 77.40625 C 550.75 77.414062 548.457031 77.410156 546.160156 77.402344 C 545.070312 77.398438 543.976562 77.398438 542.882812 77.402344 C 535.261719 77.414062 528.289062 77.015625 521.339844 73.554688 C 521.011719 73.398438 520.683594 73.238281 520.347656 73.074219 C 517.582031 71.679688 515.234375 70.015625 512.96875 67.898438 C 512.585938 67.558594 512.207031 67.21875 511.8125 66.867188 C 504.277344 59.816406 500.757812 50.605469 499.910156 40.476562 C 499.597656 30.003906 503.363281 20.246094 510.523438 12.628906 C 510.871094 12.269531 511.222656 11.914062 511.585938 11.546875 C 511.902344 11.222656 512.21875 10.902344 512.546875 10.566406 C 519.625 3.828125 528.984375 0.757812 538.601562 0.820312 Z M 538.601562 0.820312 "/>
<path style=" stroke:none;fill-rule:nonzero;fill:rgb(78.039217%,27.058825%,20%);fill-opacity:1;" d="M 280.726562 1.847656 C 284.007812 4.503906 285.992188 8.464844 288.125 12.039062 C 289.496094 14.339844 290.945312 16.582031 292.414062 18.820312 C 294.511719 22.03125 296.589844 25.253906 298.644531 28.492188 C 300.957031 32.136719 303.273438 35.773438 305.601562 39.40625 C 305.910156 39.886719 306.214844 40.367188 306.535156 40.863281 C 307.160156 41.84375 307.785156 42.820312 308.414062 43.800781 C 309.652344 45.734375 310.886719 47.667969 312.125 49.601562 C 312.738281 50.558594 313.351562 51.515625 313.964844 52.472656 C 315.53125 54.925781 317.101562 57.378906 318.667969 59.828125 C 318.984375 60.324219 319.300781 60.820312 319.628906 61.332031 C 320.253906 62.3125 320.878906 63.289062 321.503906 64.265625 C 322.898438 66.449219 324.300781 68.628906 325.71875 70.796875 C 325.960938 71.164062 326.199219 71.53125 326.445312 71.910156 C 326.886719 72.582031 327.332031 73.257812 327.777344 73.925781 C 329.207031 76.109375 329.207031 76.109375 329.207031 77.136719 C 326.757812 77.238281 324.3125 77.316406 321.863281 77.363281 C 321.027344 77.386719 320.195312 77.414062 319.367188 77.449219 C 312.488281 77.742188 312.488281 77.742188 310.578125 76.34375 C 309.84375 75.253906 309.375 74.199219 308.890625 72.980469 C 308.441406 72.242188 307.980469 71.507812 307.507812 70.785156 C 307.0625 70.066406 306.621094 69.34375 306.175781 68.621094 C 305.949219 68.25 305.71875 67.878906 305.480469 67.5 C 305.265625 67.144531 305.046875 66.792969 304.824219 66.429688 C 304.628906 66.109375 304.433594 65.792969 304.234375 65.46875 C 303.8125 64.664062 303.8125 64.664062 303.8125 63.742188 C 303.320312 63.75 302.832031 63.761719 302.324219 63.773438 C 297.699219 63.867188 293.074219 63.933594 288.445312 63.980469 C 286.066406 64.003906 283.691406 64.039062 281.3125 64.089844 C 279.015625 64.140625 276.71875 64.167969 274.421875 64.179688 C 273.546875 64.1875 272.671875 64.203125 271.796875 64.230469 C 264.949219 64.417969 264.949219 64.417969 262.882812 62.765625 C 262.039062 61.578125 261.457031 60.449219 260.871094 59.121094 C 260.375 58.332031 259.867188 57.542969 259.34375 56.769531 C 258.859375 56.003906 258.378906 55.238281 257.898438 54.472656 C 257.648438 54.082031 257.398438 53.6875 257.140625 53.28125 C 255.332031 50.40625 255.332031 50.40625 255.332031 49.882812 C 267.976562 49.730469 280.625 49.578125 293.652344 49.421875 C 291.824219 46.527344 289.996094 43.628906 288.113281 40.648438 C 286.886719 38.667969 285.664062 36.6875 284.449219 34.699219 C 283.824219 33.679688 283.195312 32.660156 282.570312 31.644531 C 282.265625 31.144531 281.957031 30.644531 281.644531 30.128906 C 279.945312 27.367188 278.234375 24.613281 276.523438 21.855469 C 276.175781 21.296875 276.175781 21.296875 275.820312 20.726562 C 275.617188 20.402344 275.417969 20.078125 275.207031 19.742188 C 274.722656 18.9375 274.722656 18.9375 274.261719 18.015625 C 271.867188 21.339844 269.6875 24.757812 267.566406 28.261719 C 265.121094 32.28125 262.621094 36.253906 260.035156 40.183594 C 257.785156 43.605469 255.597656 47.046875 253.476562 50.546875 C 251.304688 54.144531 249.054688 57.691406 246.804688 61.238281 C 245.605469 63.128906 244.40625 65.023438 243.210938 66.917969 C 243 67.25 242.785156 67.585938 242.570312 67.929688 C 242.253906 68.425781 242.253906 68.425781 241.933594 68.933594 C 241.710938 69.269531 241.484375 69.609375 241.253906 69.957031 C 240.496094 71.167969 240.496094 71.167969 239.894531 72.71875 C 239.042969 74.539062 238.339844 75.765625 236.863281 77.136719 C 233.921875 78.113281 230.667969 77.699219 227.628906 77.511719 C 226.777344 77.480469 225.925781 77.453125 225.074219 77.429688 C 223 77.363281 220.929688 77.261719 218.855469 77.136719 C 219.640625 75.070312 220.695312 73.3125 221.914062 71.476562 C 222.375 70.773438 222.832031 70.070312 223.292969 69.367188 C 223.542969 68.988281 223.792969 68.605469 224.050781 68.210938 C 225.535156 65.929688 227 63.636719 228.464844 61.34375 C 228.78125 60.851562 229.09375 60.359375 229.421875 59.851562 C 231.707031 56.269531 233.988281 52.6875 236.269531 49.101562 C 239.84375 43.472656 243.445312 37.863281 247.039062 32.246094 C 247.976562 30.785156 248.910156 29.320312 249.847656 27.859375 C 250.152344 27.378906 250.457031 26.902344 250.773438 26.414062 C 252.535156 23.660156 254.289062 20.90625 256.042969 18.148438 C 256.839844 16.890625 257.640625 15.632812 258.445312 14.375 C 259.425781 12.832031 260.398438 11.285156 261.367188 9.730469 C 261.804688 9.027344 262.246094 8.324219 262.6875 7.621094 C 262.878906 7.308594 263.070312 6.996094 263.265625 6.675781 C 267.269531 0.351562 274.011719 -2.125 280.726562 1.847656 Z M 280.726562 1.847656 "/>
<path style=" stroke:none;fill-rule:nonzero;fill:rgb(78.039217%,27.450982%,20%);fill-opacity:1;" d="M 356.234375 0.867188 C 356.734375 0.867188 357.230469 0.867188 357.742188 0.867188 C 358.28125 0.867188 358.820312 0.871094 359.375 0.871094 C 360.230469 0.871094 360.230469 0.871094 361.109375 0.871094 C 362.671875 0.871094 364.234375 0.875 365.796875 0.878906 C 367.433594 0.878906 369.070312 0.878906 370.707031 0.878906 C 373.800781 0.882812 376.898438 0.886719 379.992188 0.890625 C 383.519531 0.894531 387.042969 0.898438 390.566406 0.902344 C 397.816406 0.90625 405.066406 0.914062 412.316406 0.921875 C 411.683594 2.546875 410.996094 3.945312 410.035156 5.398438 C 409.773438 5.796875 409.515625 6.195312 409.246094 6.605469 C 408.835938 7.222656 408.835938 7.222656 408.417969 7.851562 C 407.878906 8.667969 407.34375 9.488281 406.804688 10.304688 C 406.566406 10.667969 406.328125 11.027344 406.082031 11.398438 C 405.347656 12.453125 405.347656 12.453125 404.933594 13.675781 C 404.003906 14.78125 404.003906 14.78125 403.128906 14.992188 C 401.925781 15.070312 400.742188 15.074219 399.535156 15.054688 C 399.074219 15.058594 398.617188 15.058594 398.144531 15.0625 C 397.144531 15.0625 396.144531 15.0625 395.148438 15.054688 C 393.5625 15.042969 391.980469 15.042969 390.394531 15.050781 C 387.023438 15.058594 383.652344 15.050781 380.28125 15.039062 C 376.390625 15.03125 372.5 15.027344 368.609375 15.039062 C 367.058594 15.042969 365.503906 15.03125 363.949219 15.023438 C 355.613281 15.011719 348.898438 16.316406 342.539062 22.152344 C 337.089844 28.070312 335.824219 34.683594 336.070312 42.386719 C 336.191406 44.433594 336.695312 46.171875 337.515625 48.035156 C 337.664062 48.40625 337.808594 48.777344 337.960938 49.160156 C 340.4375 54.804688 345.15625 59.257812 350.878906 61.503906 C 354.507812 62.675781 357.746094 63.085938 361.546875 63.070312 C 362.398438 63.078125 362.398438 63.078125 363.265625 63.085938 C 364.804688 63.09375 366.34375 63.097656 367.878906 63.097656 C 369.492188 63.101562 371.109375 63.113281 372.722656 63.121094 C 375.769531 63.140625 378.820312 63.148438 381.867188 63.15625 C 385.339844 63.164062 388.8125 63.179688 392.289062 63.199219 C 399.425781 63.238281 406.5625 63.261719 413.699219 63.28125 C 413.121094 64.757812 412.53125 66.074219 411.65625 67.402344 C 411.441406 67.730469 411.226562 68.0625 411.003906 68.402344 C 410.777344 68.742188 410.554688 69.078125 410.324219 69.429688 C 409.882812 70.101562 409.441406 70.773438 409 71.445312 C 408.808594 71.738281 408.613281 72.035156 408.410156 72.335938 C 407.699219 73.378906 407.699219 73.378906 407.296875 74.339844 C 406.753906 75.433594 406.242188 76.257812 405.390625 77.136719 C 403.75 77.683594 402.167969 77.625 400.453125 77.585938 C 399.957031 77.589844 399.460938 77.59375 398.949219 77.59375 C 397.300781 77.601562 395.65625 77.582031 394.011719 77.5625 C 392.863281 77.558594 391.710938 77.558594 390.5625 77.558594 C 387.84375 77.554688 385.125 77.535156 382.402344 77.507812 C 379.636719 77.480469 376.875 77.476562 374.109375 77.480469 C 371.734375 77.480469 369.359375 77.46875 366.984375 77.457031 C 365.851562 77.449219 364.71875 77.445312 363.585938 77.445312 C 351.402344 77.414062 340.847656 75.269531 331.613281 66.648438 C 323.703125 58.445312 320.117188 48.339844 320.308594 37.003906 C 320.5625 30.34375 322.683594 24.664062 325.972656 18.9375 C 326.1875 18.550781 326.398438 18.164062 326.617188 17.765625 C 331.59375 9.492188 340.5625 3.976562 349.734375 1.636719 C 351.917969 1.167969 354 0.867188 356.234375 0.867188 Z M 356.234375 0.867188 "/>
<path style=" stroke:none;fill-rule:nonzero;fill:rgb(77.64706%,27.450982%,20%);fill-opacity:1;" d="M 419.703125 0.921875 C 424.730469 0.921875 429.757812 0.921875 434.9375 0.921875 C 434.9375 21.5 434.9375 42.078125 434.9375 63.28125 C 457.335938 63.28125 479.734375 63.28125 502.8125 63.28125 C 502.375 65.03125 501.902344 65.960938 500.941406 67.449219 C 500.65625 67.890625 500.371094 68.332031 500.078125 68.789062 C 499.632812 69.476562 499.632812 69.476562 499.175781 70.179688 C 498.589844 71.085938 498.003906 71.996094 497.417969 72.90625 C 497.160156 73.308594 496.898438 73.707031 496.628906 74.121094 C 495.863281 75.269531 495.863281 75.269531 495.316406 76.5 C 494.5 77.597656 494.5 77.597656 493.289062 77.886719 C 492.796875 77.886719 492.308594 77.886719 491.804688 77.886719 C 490.957031 77.894531 490.957031 77.894531 490.097656 77.902344 C 489.472656 77.894531 488.847656 77.890625 488.222656 77.882812 C 487.5625 77.882812 486.90625 77.886719 486.25 77.890625 C 484.460938 77.898438 482.671875 77.890625 480.886719 77.878906 C 479.011719 77.867188 477.140625 77.871094 475.265625 77.871094 C 472.121094 77.871094 468.972656 77.863281 465.824219 77.847656 C 462.191406 77.832031 458.558594 77.828125 454.925781 77.832031 C 451.425781 77.832031 447.929688 77.828125 444.429688 77.820312 C 442.945312 77.816406 441.457031 77.816406 439.972656 77.816406 C 438.214844 77.816406 436.460938 77.808594 434.707031 77.796875 C 434.066406 77.792969 433.425781 77.792969 432.78125 77.792969 C 424.980469 77.808594 424.980469 77.808594 421.9375 75.433594 C 421.734375 75.167969 421.53125 74.898438 421.320312 74.625 C 421.105469 74.359375 420.890625 74.09375 420.667969 73.816406 C 419.601562 72.042969 419.644531 70.277344 419.648438 68.242188 C 419.644531 67.652344 419.644531 67.058594 419.644531 66.445312 C 419.648438 65.789062 419.648438 65.132812 419.648438 64.476562 C 419.648438 63.785156 419.648438 63.09375 419.648438 62.402344 C 419.648438 60.523438 419.652344 58.644531 419.65625 56.765625 C 419.660156 54.804688 419.660156 52.839844 419.660156 50.878906 C 419.660156 47.164062 419.664062 43.445312 419.667969 39.730469 C 419.675781 35.496094 419.675781 31.265625 419.679688 27.035156 C 419.683594 18.332031 419.691406 9.628906 419.703125 0.921875 Z M 419.703125 0.921875 "/>
<path style=" stroke:none;fill-rule:nonzero;fill:rgb(78.039217%,27.058825%,20%);fill-opacity:1;" d="M 150.519531 144.109375 C 154.175781 144.109375 157.832031 144.109375 161.601562 144.109375 C 161.609375 145.25 161.613281 146.390625 161.621094 147.5625 C 161.644531 151.339844 161.675781 155.117188 161.710938 158.890625 C 161.730469 161.179688 161.75 163.46875 161.761719 165.753906 C 161.773438 167.964844 161.792969 170.175781 161.816406 172.386719 C 161.824219 173.226562 161.828125 174.066406 161.832031 174.910156 C 161.835938 176.089844 161.847656 177.273438 161.863281 178.457031 C 161.863281 178.972656 161.863281 178.972656 161.863281 179.496094 C 161.914062 182.496094 162.402344 185.53125 164.546875 187.730469 C 167.71875 189.621094 171.125 190.214844 174.789062 189.578125 C 178.035156 188.714844 181.042969 186.746094 182.804688 183.847656 C 185.058594 179.605469 184.90625 175.03125 184.921875 170.363281 C 184.929688 169.601562 184.941406 168.84375 184.949219 168.082031 C 184.96875 166.097656 184.984375 164.113281 184.996094 162.128906 C 185.011719 160.097656 185.03125 158.066406 185.050781 156.035156 C 185.09375 152.058594 185.121094 148.085938 185.148438 144.109375 C 188.804688 144.109375 192.460938 144.109375 196.230469 144.109375 C 196.230469 161.945312 196.230469 179.777344 196.230469 198.152344 C 193.183594 198.152344 190.136719 198.152344 186.996094 198.152344 C 186.691406 196.171875 186.386719 194.1875 186.074219 192.148438 C 185.769531 192.148438 185.464844 192.148438 185.148438 192.148438 C 184.875 192.496094 184.601562 192.839844 184.320312 193.199219 C 181.328125 196.902344 176.375 198.910156 171.757812 199.539062 C 165.808594 199.84375 160.484375 199.679688 155.597656 195.84375 C 150.84375 191.085938 150.425781 184.804688 150.414062 178.425781 C 150.414062 177.167969 150.421875 175.90625 150.429688 174.648438 C 150.433594 173.765625 150.433594 172.882812 150.433594 172 C 150.4375 169.6875 150.445312 167.378906 150.457031 165.070312 C 150.464844 162.707031 150.46875 160.34375 150.476562 157.984375 C 150.484375 153.359375 150.5 148.734375 150.519531 144.109375 Z M 150.519531 144.109375 "/>
<path style=" stroke:none;fill-rule:nonzero;fill:rgb(78.039217%,27.058825%,20%);fill-opacity:1;" d="M 132.050781 145.957031 C 135.113281 148.769531 136.707031 152.089844 137.59375 156.121094 C 137.632812 157.480469 137.652344 158.828125 137.644531 160.1875 C 137.644531 160.597656 137.644531 161.007812 137.644531 161.429688 C 137.644531 162.785156 137.640625 164.140625 137.636719 165.496094 C 137.636719 166.433594 137.636719 167.375 137.636719 168.3125 C 137.632812 170.785156 137.628906 173.257812 137.625 175.730469 C 137.621094 178.253906 137.617188 180.777344 137.613281 183.300781 C 137.609375 188.25 137.601562 193.203125 137.59375 198.152344 C 134.085938 198.152344 130.582031 198.152344 126.972656 198.152344 C 126.957031 196.550781 126.957031 196.550781 126.945312 194.917969 C 126.914062 191.378906 126.878906 187.839844 126.839844 184.300781 C 126.816406 182.15625 126.796875 180.011719 126.777344 177.867188 C 126.761719 175.792969 126.738281 173.722656 126.714844 171.648438 C 126.707031 170.859375 126.699219 170.074219 126.695312 169.285156 C 126.960938 161.828125 126.960938 161.828125 124.203125 155.195312 C 120.773438 152.625 117.765625 152.5625 113.582031 152.886719 C 110.398438 153.699219 107.378906 155.640625 105.601562 158.441406 C 104.203125 161.140625 103.816406 163.441406 103.792969 166.480469 C 103.785156 166.996094 103.785156 166.996094 103.777344 167.519531 C 103.761719 168.648438 103.753906 169.777344 103.742188 170.90625 C 103.730469 171.691406 103.722656 172.476562 103.710938 173.261719 C 103.6875 175.324219 103.664062 177.386719 103.640625 179.449219 C 103.617188 181.554688 103.59375 183.660156 103.566406 185.765625 C 103.515625 189.894531 103.46875 194.023438 103.425781 198.152344 C 99.769531 198.152344 96.113281 198.152344 92.34375 198.152344 C 92.34375 180.320312 92.34375 162.484375 92.34375 144.109375 C 95.238281 144.109375 98.132812 144.109375 101.117188 144.109375 C 102.15625 148.789062 102.15625 148.789062 102.039062 151.039062 C 102.34375 151.039062 102.648438 151.039062 102.964844 151.039062 C 103.082031 150.765625 103.203125 150.496094 103.324219 150.214844 C 105.410156 146.414062 109.839844 144.507812 113.800781 143.300781 C 119.820312 141.894531 126.921875 142.234375 132.050781 145.957031 Z M 132.050781 145.957031 "/>
<path style=" stroke:none;fill-rule:nonzero;fill:rgb(77.64706%,27.450982%,20.392157%);fill-opacity:1;" d="M 9.695312 122.863281 C 13.65625 122.863281 17.621094 122.863281 21.699219 122.863281 C 21.699219 144.355469 21.699219 165.847656 21.699219 187.992188 C 33.738281 187.992188 45.773438 187.992188 58.175781 187.992188 C 58.175781 191.34375 58.175781 194.699219 58.175781 198.152344 C 42.179688 198.152344 26.179688 198.152344 9.695312 198.152344 C 9.695312 173.308594 9.695312 148.460938 9.695312 122.863281 Z M 9.695312 122.863281 "/>
<path style=" stroke:none;fill-rule:nonzero;fill:rgb(78.039217%,27.058825%,20%);fill-opacity:1;" d="M 204.542969 144.109375 C 208.925781 143.386719 213.625 142.75 217.929688 144.109375 C 221.15625 146.695312 222.859375 150.582031 224.613281 154.242188 C 225.53125 156.085938 226.640625 157.726562 227.859375 159.382812 C 228.398438 160.140625 228.9375 160.902344 229.472656 161.664062 C 231.546875 158.984375 233.332031 156.363281 234.890625 153.359375 C 239.480469 144.800781 239.480469 144.800781 243.125 143.542969 C 246.925781 143.027344 250.652344 143.40625 254.40625 144.109375 C 253.042969 146.609375 251.5 148.890625 249.820312 151.183594 C 249.28125 151.917969 248.746094 152.65625 248.210938 153.390625 C 247.9375 153.765625 247.664062 154.140625 247.382812 154.527344 C 246.066406 156.335938 244.753906 158.144531 243.441406 159.960938 C 243.195312 160.300781 242.945312 160.644531 242.691406 160.996094 C 240.550781 163.960938 238.460938 166.957031 236.398438 169.976562 C 237.019531 171.277344 237.714844 172.460938 238.53125 173.648438 C 238.769531 174 239.011719 174.347656 239.257812 174.707031 C 239.515625 175.082031 239.769531 175.453125 240.035156 175.835938 C 240.304688 176.226562 240.574219 176.617188 240.847656 177.019531 C 243.242188 180.496094 245.675781 183.945312 248.113281 187.386719 C 249.5625 189.433594 251.003906 191.484375 252.445312 193.535156 C 252.730469 193.941406 253.019531 194.347656 253.3125 194.765625 C 253.578125 195.140625 253.839844 195.515625 254.109375 195.902344 C 254.347656 196.234375 254.582031 196.570312 254.824219 196.914062 C 255.332031 197.691406 255.332031 197.691406 255.332031 198.152344 C 253.484375 198.265625 251.636719 198.351562 249.789062 198.40625 C 249.160156 198.429688 248.53125 198.460938 247.90625 198.5 C 242.765625 198.820312 242.765625 198.820312 240.957031 197.355469 C 240.09375 196.128906 239.414062 194.859375 238.707031 193.535156 C 237.953125 192.367188 237.160156 191.226562 236.371094 190.082031 C 235.960938 189.472656 235.550781 188.859375 235.140625 188.246094 C 234.511719 187.300781 233.878906 186.355469 233.242188 185.414062 C 232.621094 184.488281 232 183.5625 231.378906 182.636719 C 231.09375 182.210938 231.09375 182.210938 230.800781 181.777344 C 229.472656 179.78125 229.472656 179.78125 229.472656 178.753906 C 229.167969 178.753906 228.863281 178.753906 228.550781 178.753906 C 228.441406 179.050781 228.335938 179.351562 228.222656 179.660156 C 225.699219 185.597656 221.050781 195.492188 215.183594 198.632812 C 211.308594 199.984375 207.019531 199.195312 203.15625 198.152344 C 204.988281 195.207031 206.859375 192.347656 208.984375 189.605469 C 211.359375 186.496094 213.589844 183.300781 215.773438 180.054688 C 216.890625 178.398438 218.015625 176.769531 219.25 175.199219 C 219.449219 174.945312 219.644531 174.695312 219.851562 174.433594 C 220.371094 173.78125 220.902344 173.136719 221.433594 172.492188 C 222.167969 171.425781 222.167969 171.425781 222.125 170.292969 C 221.367188 168.414062 220.1875 166.914062 218.96875 165.300781 C 218.417969 164.554688 217.871094 163.8125 217.320312 163.066406 C 217.039062 162.679688 216.757812 162.296875 216.464844 161.902344 C 215.125 160.050781 213.84375 158.160156 212.5625 156.265625 C 210.464844 153.164062 208.304688 150.117188 206.042969 147.132812 C 204.542969 145.132812 204.542969 145.132812 204.542969 144.109375 Z M 204.542969 144.109375 "/>
<path style=" stroke:none;fill-rule:nonzero;fill:rgb(77.64706%,27.450982%,20.392157%);fill-opacity:1;" d="M 61.871094 144.109375 C 67.507812 144.109375 73.144531 144.109375 78.953125 144.109375 C 78.953125 161.945312 78.953125 179.777344 78.953125 198.152344 C 75.296875 198.152344 71.640625 198.152344 67.871094 198.152344 C 67.871094 183.0625 67.871094 167.972656 67.871094 152.425781 C 66.730469 151.96875 66.730469 151.96875 65.5625 151.5 C 63.992188 150.867188 63.242188 150.332031 61.871094 149.191406 C 61.871094 147.515625 61.871094 145.839844 61.871094 144.109375 Z M 61.871094 144.109375 "/>
<path style=" stroke:none;fill-rule:nonzero;fill:rgb(77.64706%,27.450982%,20.392157%);fill-opacity:1;" d="M 65.5625 122.863281 C 69.984375 122.863281 74.402344 122.863281 78.953125 122.863281 C 78.953125 126.21875 78.953125 129.570312 78.953125 133.027344 C 74.535156 133.027344 70.117188 133.027344 65.5625 133.027344 C 65.5625 129.671875 65.5625 126.320312 65.5625 122.863281 Z M 65.5625 122.863281 "/>
</g>
</svg>
